<svg width="37" height="37" viewBox="0 0 37 37" fill="none" xmlns="http://www.w3.org/2000/svg">
<path d="M15.0711 21.1844C16.4694 22.7919 18.1706 24.0941 20.1745 25.091C22.1784 26.0879 24.3547 26.6297 26.7036 26.7164C27.0092 26.7377 27.271 26.6535 27.489 26.4639C27.707 26.2743 27.8266 26.0267 27.8479 25.721L28.0516 22.2413C28.0711 21.9611 28.0018 21.7163 27.8436 21.5069C27.6854 21.2975 27.4739 21.1644 27.2091 21.1076L23.349 20.3015C23.1724 20.2636 23.006 20.2648 22.8496 20.3051C22.6932 20.3454 22.5469 20.4248 22.4107 20.5433L20.0812 22.5697C19.4674 22.1942 18.8758 21.7755 18.3065 21.3135C17.7371 20.8516 17.2036 20.3345 16.7059 19.7624C16.2082 19.1902 15.77 18.5902 15.3914 17.9623C15.0127 17.3345 14.68 16.6906 14.3931 16.0308L16.7226 14.0044C16.8589 13.8859 16.9578 13.752 17.0194 13.6027C17.0809 13.4534 17.1052 13.2887 17.0921 13.1087L16.8284 9.17408C16.8088 8.90396 16.7063 8.67606 16.5209 8.49038C16.3354 8.3047 16.1026 8.20211 15.8224 8.18261L12.348 7.90242C12.0423 7.88115 11.7805 7.96531 11.5626 8.15492C11.3446 8.34452 11.225 8.59215 11.2037 8.89783C10.9523 11.2224 11.1845 13.4494 11.9002 15.5789C12.6158 17.7084 13.6728 19.5769 15.0711 21.1844Z" fill="#DAA521"/>
</svg>
